<?xml version="1.0" standalone="no"?>
<!DOCTYPE svg PUBLIC "-//W3C//DTD SVG 20010904//EN"
 "http://www.w3.org/TR/2001/REC-SVG-20010904/DTD/svg10.dtd">
<svg version="1.0" xmlns="http://www.w3.org/2000/svg"
 width="300.000000pt" height="300.000000pt" viewBox="0 0 300.000000 300.000000"
 preserveAspectRatio="xMidYMid meet">
<metadata>
Created by potrace 1.11, written by Peter Selinger 2001-2013
</metadata>
<g transform="translate(0.000000,300.000000) scale(0.100000,-0.100000)"
fill="#000000" stroke="none">
<path d="M0 1500 l0 -1500 1500 0 1500 0 0 1500 0 1500 -1500 0 -1500 0 0
-1500z m1780 1291 c634 -145 1066 -708 1036 -1351 -15 -328 -137 -615 -365
-853 -517 -541 -1385 -541 -1902 0 -228 238 -350 525 -365 853 -31 668 448
1259 1106 1364 128 21 372 14 490 -13z"/>
<path d="M1342 2660 c-136 -19 -317 -82 -427 -147 -382 -230 -605 -644 -581
-1079 20 -370 216 -707 531 -915 183 -121 396 -182 635 -182 239 0 451 60 635
182 253 166 422 406 502 710 35 133 38 368 6 511 -120 535 -566 909 -1103 925
-74 2 -163 0 -198 -5z m208 -625 c0 -434 1 -446 20 -465 11 -11 23 -34 26 -50
6 -25 34 -44 255 -170 137 -78 249 -146 249 -150 0 -15 -42 -80 -51 -80 -5 0
-64 33 -132 73 -293 175 -371 216 -400 210 -57 -11 -117 38 -117 97 0 26 27
80 40 80 6 0 10 165 10 450 l0 450 50 0 50 0 0 -445z"/>
</g>
</svg>
